@startuml zustandsdiagramm_angemeldet
skinparam Dpi 400
hide empty description

title UML-Zustandsdiagramm für den "Page Flow" bei einem angemeldeten Benutzer
caption (c) Botan Coban, Felix Jäger, Philip Neuffer

state "index.html" as index {
index : jwt
index : roles
index : expiration

state Suche{

    [*] --> Suchformular
    Suchformular --> Suchformular : Suchkriterien eingeben
    note "Clientseitige Validierung" as note
    Suchformular --> note

    Suchformular --> Waiting: Button "OK"

    state Suchergebnis{
        state c <<choice>>
        [*] --> c : Prüfung
        c --> Fehlermeldung: Kein Buch gefunden
        c --> GefundeneBuecher: Mind. 1 Buch gefunden
        GefundeneBuecher --> DetailsBuch : Buch ausgewählt
    }

    Waiting --> Suchergebnis : Suchergebnis eingetroffen
}

state Neuanlage {
    state c2 <<choice>>

    [*] --> Eingabeformular
    Eingabeformular --> Eingabeformular : Buchdaten eingeben
    note "Clientseitige Validierung" as note3
    Eingabeformular -up-> note3

    Eingabeformular --> c2: Button "OK"
    c2 -up-> Eingabeformular: Fehlerhafte Daten

    c2 --> [*]: Korrekte Daten
}

[*] --> Suche: Button "Suchen"
[*] --> Neuanlage: Button "Neuanlegen"

[*] -right-> [*]: Button "Abmelden"
note on link
    Rollenwechsel
end note

note "Home" as note2
[*] -left-> note2
}

@enduml
