@startuml SWE-Gruppe-1-Abgabe-2

hide empty description

state "index.html" as index {
index : jwt
index : roles
index : expiration

state Suchen{

    [*] --> Suchformular : Suchkriterien eingeben

    Suchformular --> Waiting: Button "Suchen"

    state Suchergebnis{
        state c <<choice>>
        [*] --> c : Prüfung
        c --> Fehlermeldung: Kein Buch gefunden
        c --> GefundeneBuecher: min. 1 Buch gefunden
        GefundeneBuecher --> DetailsBuch : Buch ausgewählt
    }

    Waiting --> Suchergebnis : Suchergebnis eingetroffen
}

state Neuanlegen {
    state c2 <<choice>>

    [*] --> Eingabeformular : Daten eingeben
    Eingabeformular --> c2: Button "OK"

    c2 -up-> Eingabeformular: Fehlerhafte Daten
    c2 --> [*]: Korrekte Daten
}

[*] --> Suchen: Button "Suche"
[*] --> Neuanlegen: Button "Neuanlegen"

[*] --> Home: Button "Logout"
Neuanlegen --> Home

}

title UML-Zustandsdiagramm "Page Flow" für angemeldeten Benutzer
footer (c) Botan Coban, Felix Jaeger, Philip Neuffer

@enduml
