@startuml zustandsdiagramm_abgemeldet

hide empty description

title UML-Zustandsdiagramm für den "Page Flow" bei einem abgemeldeten Benutzer
caption (c) Botan Coban, Felix Jäger, Philip Neuffer

state "index.html" as index {

state Suche{

    [*] --> Suchformular
    note "Suchkriterien eingeben" as note
    Suchformular -right-> note

    Suchformular --> Waiting: Button "Suchen"

    state Suchergebnis{
        state c <<choice>>
        [*] --> c : Prüfung
        c --> Fehlermeldung: Kein Buch gefunden
        c --> GefundeneBuecher: Mind. 1 Buch gefunden
        GefundeneBuecher --> DetailsBuch : Buch ausgewählt
    }

    Waiting --> Suchergebnis : Suchergebnis eingetroffen
}

[*] --> Suche: Button "Suche"
[*] -right-> Fehler: Button "Neuanlegen"
[*] -left-> Home: Button "Login"

note "Startseite nach übersprungener Anmeldung" as note
[*] -up-> note
}

@enduml
